<svg xmlns="http://www.w3.org/2000/svg" width="1920" height="1080"><path d="M1217,438L1238,639L1437,397Z" fill="#e0e7ec" stroke="#e0e7ec" stroke-width="1.51"/><path d="M1238,639L1476,639L1437,397Z" fill="#d3e5ef" stroke="#d3e5ef" stroke-width="1.51"/><path d="M1437,397L1226,151L1217,438Z" fill="#e3dcd9" stroke="#e3dcd9" stroke-width="1.51"/><path d="M1731,408L1477,189L1437,397Z" fill="#c9cdd0" stroke="#c9cdd0" stroke-width="1.51"/><path d="M1477,189L1226,151L1437,397Z" fill="#dbccc7" stroke="#dbccc7" stroke-width="1.51"/><path d="M1476,639L1731,408L1437,397Z" fill="#c5d7e2" stroke="#c5d7e2" stroke-width="1.51"/><path d="M1226,151L958,387L1217,438Z" fill="#f0e2db" stroke="#f0e2db" stroke-width="1.51"/><path d="M1217,438L929,677L1238,639Z" fill="#e8eff4" stroke="#e8eff4" stroke-width="1.51"/><path d="M1476,639L1745,659L1731,408Z" fill="#b4d0e4" stroke="#b4d0e4" stroke-width="1.51"/><path d="M1502,937L1745,659L1476,639Z" fill="#acd0e5" stroke="#acd0e5" stroke-width="1.51"/><path d="M1238,639L1502,937L1476,639Z" fill="#c0dbea" stroke="#c0dbea" stroke-width="1.51"/><path d="M1209,948L1502,937L1238,639Z" fill="#bad9e9" stroke="#bad9e9" stroke-width="1.51"/><path d="M929,677L1209,948L1238,639Z" fill="#d8e7f1" stroke="#d8e7f1" stroke-width="1.51"/><path d="M958,387L929,677L1217,438Z" fill="#f3f2f2" stroke="#f3f2f2" stroke-width="1.51"/><path d="M1477,189L1208,-65L1226,151Z" fill="#e0bbb0" stroke="#e0bbb0" stroke-width="1.51"/><path d="M1731,408L1691,163L1477,189Z" fill="#c1bbbf" stroke="#c1bbbf" stroke-width="1.51"/><path d="M1226,151L970,134L958,387Z" fill="#f5d7ca" stroke="#f5d7ca" stroke-width="1.51"/><path d="M958,387L714,432L929,677Z" fill="#faefea" stroke="#faefea" stroke-width="1.51"/><path d="M1208,-65L970,134L1226,151Z" fill="#ecbfb1" stroke="#ecbfb1" stroke-width="1.51"/><path d="M1502,937L1710,936L1745,659Z" fill="#93c1dc" stroke="#93c1dc" stroke-width="1.51"/><path d="M1721,1169L1710,936L1502,937Z" fill="#77b1d4" stroke="#77b1d4" stroke-width="1.51"/><path d="M929,677L931,890L1209,948Z" fill="#d2e4ef" stroke="#d2e4ef" stroke-width="1.51"/><path d="M1491,-119L1208,-65L1477,189Z" fill="#d4a8a1" stroke="#d4a8a1" stroke-width="1.51"/><path d="M1731,408L1970,157L1691,163Z" fill="#aeabb6" stroke="#aeabb6" stroke-width="1.51"/><path d="M1745,659L1972,403L1731,408Z" fill="#a6bfd7" stroke="#a6bfd7" stroke-width="1.51"/><path d="M1969,699L1972,403L1745,659Z" fill="#9cb9d8" stroke="#9cb9d8" stroke-width="1.51"/><path d="M689,140L714,432L958,387Z" fill="#fcdecd" stroke="#fcdecd" stroke-width="1.51"/><path d="M929,677L714,692L931,890Z" fill="#e5e9ea" stroke="#e5e9ea" stroke-width="1.51"/><path d="M1970,892L1969,699L1745,659Z" fill="#8bb3d5" stroke="#8bb3d5" stroke-width="1.51"/><path d="M1222,1166L1443,1167L1209,948Z" fill="#94c0dc" stroke="#94c0dc" stroke-width="1.51"/><path d="M1209,948L1443,1167L1502,937Z" fill="#96c4de" stroke="#96c4de" stroke-width="1.51"/><path d="M935,1184L1222,1166L1209,948Z" fill="#a2c5df" stroke="#a2c5df" stroke-width="1.51"/><path d="M714,432L714,692L929,677Z" fill="#f4ece7" stroke="#f4ece7" stroke-width="1.51"/><path d="M931,890L935,1184L1209,948Z" fill="#b8d4e6" stroke="#b8d4e6" stroke-width="1.51"/><path d="M1720,-87L1491,-119L1691,163Z" fill="#bb9496" stroke="#bb9496" stroke-width="1.51"/><path d="M1691,163L1491,-119L1477,189Z" fill="#c8aaa7" stroke="#c8aaa7" stroke-width="1.51"/><path d="M1970,157L1720,-87L1691,163Z" fill="#ae959c" stroke="#ae959c" stroke-width="1.51"/><path d="M1969,699L2251,643L1972,403Z" fill="#95abd2" stroke="#95abd2" stroke-width="1.51"/><path d="M1710,936L1970,892L1745,659Z" fill="#82b4d5" stroke="#82b4d5" stroke-width="1.51"/><path d="M1947,1173L1970,892L1710,936Z" fill="#609fca" stroke="#609fca" stroke-width="1.51"/><path d="M1972,403L1970,157L1731,408Z" fill="#a9acc0" stroke="#a9acc0" stroke-width="1.51"/><path d="M1443,1167L1721,1169L1502,937Z" fill="#74b0d3" stroke="#74b0d3" stroke-width="1.51"/><path d="M1474,1408L1721,1169L1443,1167Z" fill="#659eca" stroke="#659eca" stroke-width="1.51"/><path d="M970,134L689,140L958,387Z" fill="#fbd5c3" stroke="#fbd5c3" stroke-width="1.51"/><path d="M1208,-65L940,-100L970,134Z" fill="#edb4a6" stroke="#edb4a6" stroke-width="1.51"/><path d="M957,-350L940,-100L1208,-65Z" fill="#e39c94" stroke="#e39c94" stroke-width="1.51"/><path d="M466,905L689,927L714,692Z" fill="#dcd3d0" stroke="#dcd3d0" stroke-width="1.51"/><path d="M940,-100L689,140L970,134Z" fill="#f6bda9" stroke="#f6bda9" stroke-width="1.51"/><path d="M714,692L689,927L931,890Z" fill="#dadee0" stroke="#dadee0" stroke-width="1.51"/><path d="M450,635L714,692L714,432Z" fill="#f6e2d7" stroke="#f6e2d7" stroke-width="1.51"/><path d="M689,927L935,1184L931,890Z" fill="#c0d2de" stroke="#c0d2de" stroke-width="1.51"/><path d="M1222,1166L1474,1408L1443,1167Z" fill="#7aa8d0" stroke="#7aa8d0" stroke-width="1.51"/><path d="M1491,-119L1439,-336L1208,-65Z" fill="#ca8f8d" stroke="#ca8f8d" stroke-width="1.51"/><path d="M1753,-319L1439,-336L1491,-119Z" fill="#b3797f" stroke="#b3797f" stroke-width="1.51"/><path d="M1720,-87L1753,-319L1491,-119Z" fill="#af7c83" stroke="#af7c83" stroke-width="1.51"/><path d="M1970,157L1957,-97L1720,-87Z" fill="#a6808d" stroke="#a6808d" stroke-width="1.51"/><path d="M1721,1169L1947,1173L1710,936Z" fill="#529ac8" stroke="#529ac8" stroke-width="1.51"/><path d="M1733,1441L1947,1173L1721,1169Z" fill="#3b86bd" stroke="#3b86bd" stroke-width="1.51"/><path d="M1194,1434L1474,1408L1222,1166Z" fill="#7fa2cd" stroke="#7fa2cd" stroke-width="1.51"/><path d="M940,-100L717,-121L689,140Z" fill="#f1aa96" stroke="#f1aa96" stroke-width="1.51"/><path d="M957,-350L717,-121L940,-100Z" fill="#e6978c" stroke="#e6978c" stroke-width="1.51"/><path d="M436,418L714,432L689,140Z" fill="#fdd3bd" stroke="#fdd3bd" stroke-width="1.51"/><path d="M436,418L450,635L714,432Z" fill="#fbd8c7" stroke="#fbd8c7" stroke-width="1.51"/><path d="M1439,-336L1241,-378L1208,-65Z" fill="#cc8887" stroke="#cc8887" stroke-width="1.51"/><path d="M2221,898L2251,643L1969,699Z" fill="#7f9cc5" stroke="#7f9cc5" stroke-width="1.51"/><path d="M1972,403L2239,155L1970,157Z" fill="#a293ab" stroke="#a293ab" stroke-width="1.51"/><path d="M1970,157L2227,-77L1957,-97Z" fill="#9d7287" stroke="#9d7287" stroke-width="1.51"/><path d="M2221,898L1969,699L1970,892Z" fill="#779ecb" stroke="#779ecb" stroke-width="1.51"/><path d="M2251,643L2259,444L1972,403Z" fill="#959fc2" stroke="#959fc2" stroke-width="1.51"/><path d="M448,128L436,418L689,140Z" fill="#fabda1" stroke="#fabda1" stroke-width="1.51"/><path d="M935,1184L1194,1434L1222,1166Z" fill="#93b1d5" stroke="#93b1d5" stroke-width="1.51"/><path d="M935,1184L952,1451L1194,1434Z" fill="#94a9d0" stroke="#94a9d0" stroke-width="1.51"/><path d="M689,927L714,1208L935,1184Z" fill="#b1c1d1" stroke="#b1c1d1" stroke-width="1.51"/><path d="M417,1183L714,1208L689,927Z" fill="#b5b5c0" stroke="#b5b5c0" stroke-width="1.51"/><path d="M1957,-97L1753,-319L1720,-87Z" fill="#a06f7d" stroke="#a06f7d" stroke-width="1.51"/><path d="M1439,-336L1965,-357L1241,-378Z" fill="#a2717b" stroke="#a2717b" stroke-width="1.51"/><path d="M2213,1163L2221,898L1970,892Z" fill="#578abb" stroke="#578abb" stroke-width="1.51"/><path d="M1241,-378L957,-350L1208,-65Z" fill="#d68d8a" stroke="#d68d8a" stroke-width="1.51"/><path d="M450,635L466,905L714,692Z" fill="#e9d3ca" stroke="#e9d3ca" stroke-width="1.51"/><path d="M229,916L466,905L450,635Z" fill="#ddbeb3" stroke="#ddbeb3" stroke-width="1.51"/><path d="M2259,444L2239,155L1972,403Z" fill="#9a95af" stroke="#9a95af" stroke-width="1.51"/><path d="M1957,-97L1965,-357L1753,-319Z" fill="#965d72" stroke="#965d72" stroke-width="1.51"/><path d="M450,-72L689,140L717,-121Z" fill="#efa188" stroke="#efa188" stroke-width="1.51"/><path d="M450,-72L448,128L689,140Z" fill="#f3a788" stroke="#f3a788" stroke-width="1.51"/><path d="M1947,1173L2213,1163L1970,892Z" fill="#4988be" stroke="#4988be" stroke-width="1.51"/><path d="M1474,1408L1733,1441L1721,1169Z" fill="#518bc0" stroke="#518bc0" stroke-width="1.51"/><path d="M1194,1434L1733,1441L1474,1408Z" fill="#628cb8" stroke="#628cb8" stroke-width="1.51"/><path d="M705,1417L952,1451L935,1184Z" fill="#9ca7ca" stroke="#9ca7ca" stroke-width="1.51"/><path d="M1194,1434L952,1451L1733,1441Z" fill="#7693bb" stroke="#7693bb" stroke-width="1.51"/><path d="M2459,-64L2227,-77L2239,155Z" fill="#895969" stroke="#895969" stroke-width="1.51"/><path d="M2239,155L2227,-77L1970,157Z" fill="#9a7588" stroke="#9a7588" stroke-width="1.51"/><path d="M1958,1444L2213,1163L1947,1173Z" fill="#2d73b3" stroke="#2d73b3" stroke-width="1.51"/><path d="M2509,682L2466,398L2251,643Z" fill="#818ba9" stroke="#818ba9" stroke-width="1.51"/><path d="M2227,-77L1965,-357L1957,-97Z" fill="#945a74" stroke="#945a74" stroke-width="1.51"/><path d="M1753,-319L1965,-357L1439,-336Z" fill="#956474" stroke="#956474" stroke-width="1.51"/><path d="M448,128L223,388L436,418Z" fill="#f8b99d" stroke="#f8b99d" stroke-width="1.51"/><path d="M419,-329L450,-72L717,-121Z" fill="#e1826c" stroke="#e1826c" stroke-width="1.51"/><path d="M714,1208L705,1417L935,1184Z" fill="#a2adc8" stroke="#a2adc8" stroke-width="1.51"/><path d="M417,1183L705,1417L714,1208Z" fill="#a6a2b7" stroke="#a6a2b7" stroke-width="1.51"/><path d="M1733,1441L1958,1444L1947,1173Z" fill="#3076b5" stroke="#3076b5" stroke-width="1.51"/><path d="M952,1451L1958,1444L1733,1441Z" fill="#5784b2" stroke="#5784b2" stroke-width="1.51"/><path d="M957,-350L697,-372L717,-121Z" fill="#de877d" stroke="#de877d" stroke-width="1.51"/><path d="M1241,-378L697,-372L957,-350Z" fill="#cc8987" stroke="#cc8987" stroke-width="1.51"/><path d="M2259,444L2466,398L2239,155Z" fill="#8d8398" stroke="#8d8398" stroke-width="1.51"/><path d="M2251,643L2466,398L2259,444Z" fill="#888daa" stroke="#888daa" stroke-width="1.51"/><path d="M2509,682L2251,643L2221,898Z" fill="#7488ab" stroke="#7488ab" stroke-width="1.51"/><path d="M165,132L223,388L448,128Z" fill="#f1a284" stroke="#f1a284" stroke-width="1.51"/><path d="M436,418L223,388L450,635Z" fill="#f8c6b1" stroke="#f8c6b1" stroke-width="1.51"/><path d="M466,905L417,1183L689,927Z" fill="#c4babb" stroke="#c4babb" stroke-width="1.51"/><path d="M229,916L417,1183L466,905Z" fill="#c4aba9" stroke="#c4aba9" stroke-width="1.51"/><path d="M223,388L183,651L450,635Z" fill="#f4bfaf" stroke="#f4bfaf" stroke-width="1.51"/><path d="M2506,907L2509,682L2221,898Z" fill="#647fa2" stroke="#647fa2" stroke-width="1.51"/><path d="M183,651L229,916L450,635Z" fill="#e6b8ac" stroke="#e6b8ac" stroke-width="1.51"/><path d="M2481,1171L2221,898L2213,1163Z" fill="#3b6d9d" stroke="#3b6d9d" stroke-width="1.51"/><path d="M2481,1171L2506,907L2221,898Z" fill="#49719b" stroke="#49719b" stroke-width="1.51"/><path d="M2466,398L2512,155L2239,155Z" fill="#8b7384" stroke="#8b7384" stroke-width="1.51"/><path d="M2227,-77L2253,-368L1965,-357Z" fill="#854462" stroke="#854462" stroke-width="1.51"/><path d="M2509,682L2512,155L2466,398Z" fill="#88849c" stroke="#88849c" stroke-width="1.51"/><path d="M-72,378L-44,685L183,651Z" fill="#e7a197" stroke="#e7a197" stroke-width="1.51"/><path d="M193,-93L165,132L448,128Z" fill="#e8886b" stroke="#e8886b" stroke-width="1.51"/><path d="M193,-93L448,128L450,-72Z" fill="#e8886b" stroke="#e8886b" stroke-width="1.51"/><path d="M2512,155L2459,-64L2239,155Z" fill="#885f6c" stroke="#885f6c" stroke-width="1.51"/><path d="M697,-372L419,-329L717,-121Z" fill="#dc7c6c" stroke="#dc7c6c" stroke-width="1.51"/><path d="M1958,1444L2224,1445L2213,1163Z" fill="#1f61a5" stroke="#1f61a5" stroke-width="1.51"/><path d="M440,1462L2224,1445L1958,1444Z" fill="#5784b1" stroke="#5784b1" stroke-width="1.51"/><path d="M2459,-64L2253,-368L2227,-77Z" fill="#7d4056" stroke="#7d4056" stroke-width="1.51"/><path d="M1965,-357L2253,-368L1241,-378Z" fill="#855a6f" stroke="#855a6f" stroke-width="1.51"/><path d="M952,1451L440,1462L1958,1444Z" fill="#8498bc" stroke="#8498bc" stroke-width="1.51"/><path d="M705,1417L440,1462L952,1451Z" fill="#9692ab" stroke="#9692ab" stroke-width="1.51"/><path d="M417,1183L440,1462L705,1417Z" fill="#a28fa7" stroke="#a28fa7" stroke-width="1.51"/><path d="M173,1415L440,1462L417,1183Z" fill="#a07e93" stroke="#a07e93" stroke-width="1.51"/><path d="M2503,1398L2481,1171L2213,1163Z" fill="#1f558c" stroke="#1f558c" stroke-width="1.51"/><path d="M419,-329L193,-93L450,-72Z" fill="#dc715a" stroke="#dc715a" stroke-width="1.51"/><path d="M229,916L190,1142L417,1183Z" fill="#b6989b" stroke="#b6989b" stroke-width="1.51"/><path d="M-92,908L190,1142L229,916Z" fill="#be9091" stroke="#be9091" stroke-width="1.51"/><path d="M-44,685L229,916L183,651Z" fill="#dda49b" stroke="#dda49b" stroke-width="1.51"/><path d="M-72,378L223,388L165,132Z" fill="#eb9881" stroke="#eb9881" stroke-width="1.51"/><path d="M-72,378L183,651L223,388Z" fill="#eea796" stroke="#eea796" stroke-width="1.51"/><path d="M419,-329L227,-346L193,-93Z" fill="#d05a4b" stroke="#d05a4b" stroke-width="1.51"/><path d="M-88,142L-72,378L165,132Z" fill="#e2826c" stroke="#e2826c" stroke-width="1.51"/><path d="M697,-372L227,-346L419,-329Z" fill="#c86658" stroke="#c86658" stroke-width="1.51"/><path d="M-88,142L165,132L-28,-106Z" fill="#da6c56" stroke="#da6c56" stroke-width="1.51"/><path d="M2224,1445L2503,1398L2213,1163Z" fill="#17518d" stroke="#17518d" stroke-width="1.51"/><path d="M2481,1171L2503,1398L2506,907Z" fill="#265e90" stroke="#265e90" stroke-width="1.51"/><path d="M2506,907L2503,1398L2509,682Z" fill="#48719b" stroke="#48719b" stroke-width="1.51"/><path d="M-48,1172L173,1415L190,1142Z" fill="#a07082" stroke="#a07082" stroke-width="1.51"/><path d="M190,1142L173,1415L417,1183Z" fill="#a58290" stroke="#a58290" stroke-width="1.51"/><path d="M2253,-368L2512,-382L1241,-378Z" fill="#7b4a68" stroke="#7b4a68" stroke-width="1.51"/><path d="M2459,-64L2512,-382L2253,-368Z" fill="#722e47" stroke="#722e47" stroke-width="1.51"/><path d="M2512,155L2512,-382L2459,-64Z" fill="#7e4457" stroke="#7e4457" stroke-width="1.51"/><path d="M-28,-106L165,132L193,-93Z" fill="#da6852" stroke="#da6852" stroke-width="1.51"/><path d="M-44,685L-92,908L229,916Z" fill="#ce9591" stroke="#ce9591" stroke-width="1.51"/><path d="M-296,898L-92,908L-44,685Z" fill="#c68485" stroke="#c68485" stroke-width="1.51"/><path d="M-321,641L-44,685L-72,378Z" fill="#de918b" stroke="#de918b" stroke-width="1.51"/><path d="M227,-346L-28,-106L193,-93Z" fill="#cd5144" stroke="#cd5144" stroke-width="1.51"/><path d="M-92,908L-48,1172L190,1142Z" fill="#ad7d84" stroke="#ad7d84" stroke-width="1.51"/><path d="M-311,135L-299,385L-88,142Z" fill="#ce6e60" stroke="#ce6e60" stroke-width="1.51"/><path d="M-88,142L-299,385L-72,378Z" fill="#dd7f6f" stroke="#dd7f6f" stroke-width="1.51"/><path d="M-92,908L-338,1178L-48,1172Z" fill="#a36b78" stroke="#a36b78" stroke-width="1.51"/><path d="M-332,-68L-311,135L-88,142Z" fill="#c4574b" stroke="#c4574b" stroke-width="1.51"/><path d="M227,-346L-40,-375L-28,-106Z" fill="#c03938" stroke="#c03938" stroke-width="1.51"/><path d="M697,-372L-40,-375L227,-346Z" fill="#bd5348" stroke="#bd5348" stroke-width="1.51"/><path d="M1241,-378L-40,-375L697,-372Z" fill="#c8766b" stroke="#c8766b" stroke-width="1.51"/><path d="M2512,-382L-40,-375L1241,-378Z" fill="#ba8083" stroke="#ba8083" stroke-width="1.51"/><path d="M-329,1416L-39,1431L-48,1172Z" fill="#8d4e6c" stroke="#8d4e6c" stroke-width="1.51"/><path d="M-48,1172L-39,1431L173,1415Z" fill="#965e78" stroke="#965e78" stroke-width="1.51"/><path d="M173,1415L-39,1431L440,1462Z" fill="#916175" stroke="#916175" stroke-width="1.51"/><path d="M-299,385L-321,641L-72,378Z" fill="#d58780" stroke="#d58780" stroke-width="1.51"/><path d="M-321,641L-296,898L-44,685Z" fill="#c68586" stroke="#c68586" stroke-width="1.51"/><path d="M-299,385L-311,135L-321,641Z" fill="#c87d76" stroke="#c87d76" stroke-width="1.51"/><path d="M-332,-68L-88,142L-28,-106Z" fill="#ca4e43" stroke="#ca4e43" stroke-width="1.51"/><path d="M-341,-344L-332,-68L-28,-106Z" fill="#b12c32" stroke="#b12c32" stroke-width="1.51"/><path d="M-311,135L-332,-68L-321,641Z" fill="#c26b60" stroke="#c26b60" stroke-width="1.51"/><path d="M-321,641L-338,1178L-296,898Z" fill="#a4747c" stroke="#a4747c" stroke-width="1.51"/><path d="M-296,898L-338,1178L-92,908Z" fill="#a3707b" stroke="#a3707b" stroke-width="1.51"/><path d="M-332,-68L-338,1178L-321,641Z" fill="#c28485" stroke="#c28485" stroke-width="1.51"/><path d="M-338,1178L-329,1416L-48,1172Z" fill="#87526c" stroke="#87526c" stroke-width="1.51"/><path d="M-39,1431L-329,1416L440,1462Z" fill="#8a5068" stroke="#8a5068" stroke-width="1.51"/><path d="M-332,-68L-341,-344L-338,1178Z" fill="#c16e63" stroke="#c16e63" stroke-width="1.51"/><path d="M-40,-375L-341,-344L-28,-106Z" fill="#b41d2c" stroke="#b41d2c" stroke-width="1.51"/></svg>